<svg version="1.1" xmlns="http://www.w3.org/2000/svg" style="display: block;" viewBox="0 0 2048 2048" width="1024" height="1024">
<defs>
	<linearGradient id="Gradient1" gradientUnits="userSpaceOnUse" x1="430.082" y1="1242.93" x2="485.088" y2="1195.12">
		<stop class="stop0" offset="0" stop-opacity="1" stop-color="rgb(185,179,168)"/>
		<stop class="stop1" offset="1" stop-opacity="1" stop-color="rgb(219,214,200)"/>
	</linearGradient>
</defs>
<path transform="translate(0,0)" fill="rgb(239,232,217)" d="M 0 0 L 2048 0 L 2048 825.799 L 2048 909.433 L 2048 1060.59 L 2048 1067.14 L 2048 1141.25 L 2048 1149.67 L 2048 1529.29 L 2048 1542.12 L 2048 2048 L 0 2048 L 0 1702.98 L 0 1687.06 L 0 1099.77 L 0 1091.51 L 0 909.17 L 0 804.735 L 0 0 z"/>
<path transform="translate(0,0)" fill="rgb(216,207,194)" d="M 1438.99 706.489 C 1442.11 715.593 1443.24 724.949 1445.37 734.275 C 1447.9 745.333 1453.69 749.714 1462.81 755.266 C 1470.5 766.504 1472.55 780.612 1479.29 792.292 C 1481.32 795.808 1484.02 797.932 1487.33 800.178 C 1506.91 813.46 1503.26 817.505 1516.83 831.864 C 1519.41 826.707 1521.52 821.182 1523.83 815.885 C 1532.46 828.159 1539.98 840.01 1550.92 850.473 C 1561.72 842.999 1570.91 833.403 1580.26 824.251 C 1585.31 824.964 1590.25 826.387 1595.18 827.624 C 1600.07 820.803 1604.49 809.665 1610.79 804.468 C 1613.24 806.354 1614.69 807.561 1617.92 807.752 C 1626.33 804.078 1636.15 773.588 1640.08 763.782 C 1646.66 775.261 1660.35 797.385 1673.86 799.93 C 1680.63 801.205 1687.32 800.871 1693.51 804.357 C 1702.69 809.525 1708.41 819.462 1717.67 825.067 C 1726 842.678 1732.19 854.364 1749.22 865.241 C 1766.94 864.268 1771.82 864.015 1787.38 873.123 C 1792.51 867.994 1797.55 863.713 1803.69 859.861 C 1811.81 865.384 1817.48 873.776 1825.68 879.195 C 1830.86 882.618 1836.46 886.755 1842.17 889.135 C 1859.53 896.362 1883.45 886.954 1901.12 884.849 C 1910.38 883.746 1920.08 885.091 1929.42 885.147 C 1939.72 878.421 1962.01 864.574 1965.01 852.456 C 1966.62 845.984 1967.32 838.254 1971.18 832.653 C 1976.73 824.618 1985.55 819.841 1992.35 813.05 C 2001.51 803.899 2010.08 778.552 2015.5 766.229 C 2016.68 772.82 2016.63 779.58 2017.72 786.189 C 2017.8 786.695 2017.9 787.198 2017.99 787.704 C 2018.06 788.127 2018.11 788.554 2018.2 788.974 C 2019.56 795.435 2029.27 802.884 2033.41 808.528 C 2036.33 812.5 2038.37 817.427 2041.62 821.072 C 2043.35 823.01 2045.82 824.427 2048 825.799 L 2048 909.433 L 1785.25 909.266 C 1769.99 909.275 1709.49 907.732 1701.21 910.058 C 1697.87 904.721 1695.34 894.401 1690.67 890.68 C 1689.45 889.713 1688.76 890.154 1687.34 890.298 C 1685.75 892.217 1685.05 894.021 1684.12 896.306 L 1683.24 877.242 C 1677.14 887.22 1673.31 898.823 1668.59 909.52 C 1626.6 909.956 1584.49 909.235 1542.48 909.222 C 1523.21 909.216 1503.8 908.735 1484.54 909.674 C 1473.79 892.783 1464.77 872.488 1451.27 857.657 L 1450.33 857.897 L 1449.96 865.345 L 1448.53 859.081 C 1442.23 867.704 1432.19 897.894 1426.78 909.933 C 1404.49 907.784 1366.45 908.715 1343.53 910.009 C 1341.43 911.437 1339.19 913.331 1336.56 913.455 C 1327.68 913.876 1318.01 910.089 1309.01 909.511 C 1291.42 908.383 1273.17 909.701 1255.48 909.54 C 1253.37 906.89 1250.96 902.506 1247.75 901.551 L 1246.87 903.529 C 1245.43 905.431 1244.06 907.263 1242.84 909.317 C 1216.07 907.536 1186.75 909.238 1159.69 909.297 L 996.464 909.383 L 502.655 908.855 C 500.502 903.092 498.429 897.298 496.436 891.477 C 506.532 888.807 516.546 886.205 526.248 882.272 C 536.55 878.096 546.528 872.657 557.281 869.747 C 558.726 870.14 560.144 870.56 561.577 870.991 C 570.966 873.812 577.995 881.487 587.657 883.643 C 599.155 886.208 619.677 888.837 631.115 886.097 C 643.889 883.038 657.985 868.193 670.927 869.545 C 685.108 871.026 697.064 887.633 713.057 889.793 C 736.022 892.896 757.819 884.733 776.79 872.729 C 785.157 867.435 793.289 861.649 803.218 859.767 C 821.282 856.342 842.412 865.974 859.275 859.918 C 871.578 855.5 884.404 843.376 894.836 835.476 C 910.118 852.604 919.243 859.575 939.414 870.559 C 966.767 853.304 980.202 826 1007.23 808.181 C 1015.04 819.148 1024.59 827.15 1034.07 836.528 C 1046.67 848.99 1058.66 861.707 1072.1 873.312 L 1085.14 871.497 C 1102.24 878.882 1120.48 888.229 1134.77 900.179 C 1146.87 890.989 1173.04 874.404 1188.62 874.886 C 1198.78 875.2 1208.71 878.15 1219.02 878.43 L 1220.77 878.469 C 1228.29 872.227 1235.97 866.04 1243.13 859.381 C 1250.01 852.98 1256.18 845.988 1263.32 839.82 C 1275.98 850.633 1280.17 858.313 1297.07 863.429 C 1307.86 856.987 1319.84 849.377 1329.66 841.554 C 1346.69 827.991 1349.35 822.271 1370.26 812.828 C 1377.65 797.543 1379.44 763.208 1385.85 752.415 L 1387.44 752.068 C 1390.75 759.752 1391.96 769.001 1394.17 777.136 C 1397.66 766.733 1399.62 755.1 1409.51 748.834 C 1415.05 745.328 1419.66 741.934 1423.8 736.758 C 1430.54 728.319 1434.57 716.361 1438.99 706.489 z"/>
<path transform="translate(0,0)" fill="rgb(216,207,194)" d="M 78.6523 691.039 C 80.9631 684.548 82.6377 674.985 86.6643 669.566 L 87.6096 670.167 C 88.0168 691.307 92.9476 691.949 102.747 708.967 C 106.469 709.168 110.673 708.894 113.939 710.866 C 119.142 717.898 122.78 726.302 127.078 733.919 C 133.152 744.682 139.589 755.239 145.667 765.999 C 149.677 773.099 153.38 781.61 159.124 787.431 C 167.581 796 180.381 801.943 190.155 809.26 C 201.336 803.854 222.307 797.477 229.606 788.314 C 232.033 785.268 233.588 781.26 235.176 777.72 C 242.138 788.424 248.96 799.3 256.328 809.729 C 264.345 821.079 273.244 832.073 280.474 843.928 C 283.878 842.742 286.833 841.202 290.426 842.452 C 292.494 844.262 294.585 846.046 296.699 847.803 C 304.248 848.787 311.606 849.072 319.216 849.139 L 320.067 849.617 C 326.999 853.594 332.88 859.099 340.05 862.682 C 357.495 871.399 382.851 862.768 401.096 858.736 C 411.153 863.016 419.938 870.126 429.375 875.603 C 437.639 880.4 446.398 883.177 455.536 885.777 C 451.737 893.613 448.312 902.793 443.577 910.028 C 433.354 907.442 418.974 909.116 408.243 909.135 L 336.848 909.308 L 117.531 909.17 C 78.3546 909.423 39.1767 909.423 0 909.17 L 0 804.735 C 31.0497 785.804 19.8458 771.226 38.8727 750.355 C 51.4003 736.613 48.9756 715.322 60.7165 703.677 C 65.8552 698.58 72.9101 695.438 78.6523 691.039 z"/>
<path transform="translate(0,0)" fill="rgb(159,154,141)" d="M 474.18 847.902 C 474.944 850.313 475.337 852.339 477.458 853.933 L 477.388 854.764 C 476.465 866.757 478.519 879.976 473.932 891.441 C 472.487 912.172 472.817 933.172 472.607 953.954 C 472.344 985.633 471.793 1017.31 470.953 1048.98 C 451.365 1047.41 430.219 1045.93 410.657 1047.42 C 408.168 1049.15 405.696 1050.89 403.113 1052.48 C 398.186 1051.78 392.891 1052.16 387.905 1052.15 C 386.62 1047.36 384.512 1044.15 380.81 1040.86 C 377.678 1037.52 374.95 1033.79 372.136 1030.18 C 375.875 1032.69 379.308 1035.4 382.754 1038.29 C 384.443 1034.85 386.183 1031.43 387.973 1028.04 L 390.528 1021.16 C 397.264 1009.21 402.797 996.029 408.71 983.629 L 443.577 910.028 C 448.312 902.793 451.737 893.613 455.536 885.777 C 462.12 873.345 467.296 860.172 474.18 847.902 z"/>
<path transform="translate(0,0)" fill="rgb(198,195,146)" d="M 409.376 1016.03 C 408.565 1026.4 405.376 1038.12 399.734 1046.91 C 408.139 1044.3 413.043 1034.66 417.356 1027.54 C 416.253 1031.21 409.706 1045.18 410.657 1047.42 C 408.168 1049.15 405.696 1050.89 403.113 1052.48 C 398.186 1051.78 392.891 1052.16 387.905 1052.15 C 386.62 1047.36 384.512 1044.15 380.81 1040.86 C 377.678 1037.52 374.95 1033.79 372.136 1030.18 C 375.875 1032.69 379.308 1035.4 382.754 1038.29 C 384.443 1034.85 386.183 1031.43 387.973 1028.04 L 390.528 1021.16 L 393.583 1021.57 C 394.656 1023.82 395.778 1026.06 396.948 1028.26 L 397.993 1027.99 L 399.887 1021.99 L 401.115 1021.43 C 403.103 1026.97 399.905 1035.03 398.432 1040.55 C 402.52 1032.53 405.664 1024.21 409.376 1016.03 z"/>
<path transform="translate(0,0)" fill="rgb(236,228,207)" d="M 474.18 847.902 C 474.944 850.313 475.337 852.339 477.458 853.933 L 477.388 854.764 C 476.465 866.757 478.519 879.976 473.932 891.441 C 473.878 876.928 473.961 862.414 474.18 847.902 z"/>
<path transform="translate(0,0)" fill="rgb(216,207,194)" d="M 477.458 853.933 C 494.452 896.134 511.027 938.504 527.178 981.035 C 535.435 1002.5 542.684 1025.32 552.638 1046.01 C 525.836 1044.7 497.824 1047.84 470.953 1048.98 C 471.793 1017.31 472.344 985.633 472.607 953.954 C 472.817 933.172 472.487 912.172 473.932 891.441 C 478.519 879.976 476.465 866.757 477.388 854.764 L 477.458 853.933 z"/>
<path transform="translate(0,0)" fill="rgb(216,207,194)" d="M 1452.5 862.464 C 1465.39 885.121 1479.52 907.093 1492.63 929.635 C 1506.13 952.838 1522.65 985.94 1540.03 1005.69 C 1547.02 1005.62 1553.9 1005.41 1560.83 1006.53 L 1560.99 1007.36 C 1558.51 1007.67 1556.07 1008.03 1553.57 1008.14 C 1543.17 1007.75 1532.81 1008.9 1522.42 1008.64 C 1513.1 1008.41 1504.11 1006.57 1494.73 1006.88 C 1483.6 1006.96 1472.47 1007.17 1461.35 1007.51 L 1460.39 1007.07 C 1461.3 999.534 1459.56 990.09 1459.06 982.418 C 1456.87 960.264 1453.75 931.508 1453.25 909.716 L 1454.56 909.073 C 1455.53 894.037 1453.98 877.495 1452.5 862.464 z"/>
<path transform="translate(0,0)" fill="rgb(196,190,178)" d="M 1459.06 982.418 C 1468.99 983.178 1474.92 987.337 1481.23 994.665 C 1483.45 997.241 1486.15 1001.65 1488.72 1003.66 C 1490.8 1005.29 1493.75 1003.84 1494.73 1006.88 C 1483.6 1006.96 1472.47 1007.17 1461.35 1007.51 L 1460.39 1007.07 C 1461.3 999.534 1459.56 990.09 1459.06 982.418 z"/>
<path transform="translate(0,0)" fill="rgb(159,154,141)" d="M 1426.78 909.933 C 1432.19 897.894 1442.23 867.704 1448.53 859.081 L 1449.96 865.345 C 1450.52 880.17 1451.61 894.97 1453.25 909.716 C 1453.75 931.508 1456.87 960.264 1459.06 982.418 C 1459.56 990.09 1461.3 999.534 1460.39 1007.07 C 1450.48 1006.99 1392.91 1007.32 1387.11 1004.68 L 1426.78 909.933 z"/>
<path transform="translate(0,0)" fill="rgb(159,154,141)" d="M 1668.59 909.52 C 1673.31 898.823 1677.14 887.22 1683.24 877.242 L 1684.12 896.306 C 1683.65 907.552 1685.23 945.831 1682.12 953.628 L 1680.26 954.332 C 1666.49 953.675 1652.89 954.771 1639.16 954.615 C 1635.47 954.573 1630.68 954.812 1627.91 951.996 L 1628.44 950.512 C 1630.88 950.665 1632.99 951.095 1635.11 949.64 C 1636.19 945.956 1633.34 937.563 1632.99 933.053 C 1635.44 937.709 1637.19 942.645 1639.06 947.552 C 1641.19 940.294 1643.32 934.064 1647.26 927.583 C 1645.92 934.91 1644.21 942.201 1642.66 949.488 C 1646.28 943.381 1649.73 938.061 1654.49 932.769 C 1651.56 939.93 1648.21 946.832 1645.5 954.103 C 1656.17 940.833 1662.03 925.052 1668.59 909.52 z"/>
<path transform="translate(0,0)" fill="rgb(196,190,178)" d="M 1684.12 896.306 C 1685.05 894.021 1685.75 892.217 1687.34 890.298 C 1688.76 890.154 1689.45 889.713 1690.67 890.68 C 1695.34 894.401 1697.87 904.721 1701.21 910.058 C 1707.91 923.642 1715 937.209 1721.02 951.108 L 1732.29 951.405 C 1725.88 953.473 1685.55 956.392 1680.26 954.332 L 1682.12 953.628 C 1685.23 945.831 1683.65 907.552 1684.12 896.306 z"/>
<path transform="translate(0,0)" fill="rgb(236,228,207)" d="M 1305.38 1007.82 C 1315.59 1006.97 1367.15 1005.87 1371.49 1003.67 L 1370.64 1000.51 L 1372.01 999.663 C 1376.93 1001.77 1381.97 1003.2 1387.11 1004.68 C 1392.91 1007.32 1450.48 1006.99 1460.39 1007.07 L 1461.35 1007.51 C 1472.47 1007.17 1483.6 1006.96 1494.73 1006.88 C 1504.11 1006.57 1513.1 1008.41 1522.42 1008.64 C 1532.81 1008.9 1543.17 1007.75 1553.57 1008.14 C 1529.59 1013.47 1415.75 1015.69 1391.48 1012.22 C 1374.89 1012.42 1319.26 1012.19 1305.38 1007.82 z"/>
<path transform="translate(0,0)" fill="rgb(236,228,207)" d="M 292.505 1038.51 C 292.523 1032.63 290.583 1024.94 292.418 1019.46 L 293.32 1019.44 C 294.765 1020.96 294.532 1022.56 295.017 1024.5 C 295.818 1027.71 296.41 1030.76 296.891 1034.04 L 297.564 1034.01 C 299.356 1029.96 300.671 1027.06 304.001 1024.07 C 303.697 1029.13 302.403 1032.67 300.514 1037.31 L 301.528 1037.48 C 304.658 1034.52 307.874 1031.65 311.173 1028.87 L 312.757 1029.39 C 312.201 1033.35 307.498 1037.43 305.019 1040.66 L 305.456 1041.43 C 312.725 1044.06 372.603 1043.72 380.81 1040.86 C 384.512 1044.15 386.62 1047.36 387.905 1052.15 C 374.001 1052.08 359.916 1052.35 346.048 1051.29 C 331.319 1050.18 316.517 1047.85 301.769 1047.33 C 283.531 1046.69 266.225 1048.78 247.875 1046.47 C 261.784 1041.97 275.536 1041.5 290.036 1042.03 C 286.935 1039.14 281.488 1035.01 281.109 1030.58 L 282.557 1030.1 C 286.637 1031.93 289.434 1035.36 292.505 1038.51 z"/>
<path transform="translate(0,0)" fill="rgb(216,207,194)" d="M 1246.9 904.635 C 1261.06 915.161 1269.78 946.105 1281.83 959.85 C 1270.12 961.312 1258.07 960.158 1246.26 961.148 C 1248.6 945.77 1245.51 921.746 1246.9 904.635 z"/>
<path transform="translate(0,0)" fill="rgb(236,228,207)" d="M 552.638 1046.01 C 567.153 1045.57 582.072 1044.67 596.504 1046.65 C 577.714 1049.55 558.365 1050.25 539.397 1051.32 C 505.334 1053.24 471.844 1054.47 437.71 1054.24 C 427.267 1054.17 413.056 1055.3 403.113 1052.48 C 405.696 1050.89 408.168 1049.15 410.657 1047.42 C 430.219 1045.93 451.365 1047.41 470.953 1048.98 C 497.824 1047.84 525.836 1044.7 552.638 1046.01 z"/>
<path transform="translate(0,0)" fill="rgb(159,154,141)" d="M 1242.84 909.317 C 1244.06 907.263 1245.43 905.431 1246.87 903.529 L 1246.9 904.635 C 1245.51 921.746 1248.6 945.77 1246.26 961.148 L 1216.37 960.544 C 1225.37 943.566 1234.05 926.405 1242.84 909.317 z"/>
<path transform="translate(0,0)" fill="rgb(236,228,207)" d="M 1281.83 959.85 L 1283.67 961.405 C 1281.1 964.414 1272.94 964.616 1269.09 964.941 C 1262.44 965.502 1254.98 965.723 1248.46 964.152 C 1247.37 963.075 1246.95 962.57 1246.26 961.148 C 1258.07 960.158 1270.12 961.312 1281.83 959.85 z"/>
<path transform="translate(0,0)" fill="rgb(159,154,141)" d="M 1657.81 1734.05 L 1659.51 1732.31 C 1665.76 1734.85 1761.04 1863.81 1778.68 1883.09 C 1778.91 1894.62 1786.19 1906.62 1791.62 1916.43 L 1793.48 1916.42 C 1796.41 1916.91 1799.82 1917.35 1802.57 1916.13 L 1808.59 1916.23 C 1807.33 1913.53 1805.83 1910.19 1806.27 1907.12 C 1807.48 1898.58 1823.15 1892.08 1829.74 1887.36 C 1828 1893.72 1825.83 1899.65 1823.29 1905.73 C 1839.51 1903.04 1882.34 1910.66 1897.94 1917.97 C 1868.43 1923.89 1827.42 1925.24 1796.44 1927.23 C 1754.54 1929.92 1712.27 1934.2 1670.25 1934.09 C 1625.77 1933.97 1580.51 1930.79 1536.3 1925.95 C 1521.82 1924.36 1507.45 1921.89 1492.98 1920.29 C 1467.59 1917.48 1441.24 1918.13 1417.31 1908.1 C 1441.98 1905.01 1467.18 1904.31 1491.99 1903.07 C 1508.56 1902.25 1527.21 1899.53 1543.52 1902.33 C 1567.38 1868.02 1591.04 1833.58 1614.49 1798.99 C 1629.02 1777.5 1644.24 1756.15 1657.81 1734.05 z"/>
<path transform="translate(0,0)" fill="rgb(216,207,194)" d="M 1657.81 1734.05 L 1659.51 1732.31 C 1665.76 1734.85 1761.04 1863.81 1778.68 1883.09 C 1778.91 1894.62 1786.19 1906.62 1791.62 1916.43 C 1782.89 1916.63 1774.01 1917.19 1765.29 1916.9 C 1748.16 1917 1674.11 1922.81 1665.49 1920.51 C 1667.19 1920.28 1668.76 1919.93 1670.42 1919.53 C 1673.27 1909.03 1666.51 1867.42 1666.18 1853.06 L 1666.14 1851.02 L 1661.05 1775.42 C 1660.11 1761.68 1659.78 1747.68 1657.81 1734.05 z"/>
<path transform="translate(0,0)" fill="rgb(196,190,178)" d="M 1688.66 1827.62 C 1693.61 1830.98 1697.63 1834.83 1701.68 1839.2 C 1708.68 1846.76 1764.27 1912.28 1765.29 1916.9 C 1748.16 1917 1674.11 1922.81 1665.49 1920.51 C 1667.19 1920.28 1668.76 1919.93 1670.42 1919.53 C 1673.27 1909.03 1666.51 1867.42 1666.18 1853.06 L 1666.14 1851.02 C 1668.01 1849.87 1667.96 1850.27 1668.79 1848.12 C 1671.56 1840.95 1682.16 1831.48 1688.66 1827.62 z"/>
<path transform="translate(0,0)" fill="rgb(236,228,207)" d="M 1808.59 1916.23 C 1807.33 1913.53 1805.83 1910.19 1806.27 1907.12 C 1807.48 1898.58 1823.15 1892.08 1829.74 1887.36 C 1828 1893.72 1825.83 1899.65 1823.29 1905.73 C 1839.51 1903.04 1882.34 1910.66 1897.94 1917.97 C 1868.43 1923.89 1827.42 1925.24 1796.44 1927.23 C 1754.54 1929.92 1712.27 1934.2 1670.25 1934.09 C 1625.77 1933.97 1580.51 1930.79 1536.3 1925.95 C 1521.82 1924.36 1507.45 1921.89 1492.98 1920.29 C 1467.59 1917.48 1441.24 1918.13 1417.31 1908.1 C 1441.98 1905.01 1467.18 1904.31 1491.99 1903.07 C 1508.56 1902.25 1527.21 1899.53 1543.52 1902.33 C 1541.44 1905.17 1539.43 1908.11 1537.23 1910.85 C 1562.28 1912.06 1587.35 1914.27 1612.37 1916.16 C 1629.98 1917.49 1647.98 1918.28 1665.49 1920.51 C 1674.11 1922.81 1748.16 1917 1765.29 1916.9 C 1774.01 1917.19 1782.89 1916.63 1791.62 1916.43 L 1793.48 1916.42 C 1796.41 1916.91 1799.82 1917.35 1802.57 1916.13 L 1808.59 1916.23 z"/>
<path transform="translate(0,0)" fill="rgb(178,193,71)" d="M 1808.59 1916.23 C 1807.33 1913.53 1805.83 1910.19 1806.27 1907.12 C 1807.48 1898.58 1823.15 1892.08 1829.74 1887.36 C 1828 1893.72 1825.83 1899.65 1823.29 1905.73 C 1819.86 1910.5 1817.39 1915.13 1811.03 1916.04 C 1809.92 1916.2 1809.61 1916.19 1808.59 1916.23 z"/>
<path transform="translate(0,0)" fill="rgb(216,207,194)" d="M 314.771 1685.77 C 329.7 1658.88 344.348 1631.62 360.127 1605.22 L 359.833 1644.27 L 360.247 1645.07 C 363.438 1639.77 363.593 1615.68 364.129 1608.3 C 366.028 1611.74 367.782 1615.13 370.397 1618.09 C 398.037 1670.8 429.982 1721.8 459.29 1773.66 C 468.006 1789.08 478.019 1804.36 485.711 1820.28 C 477.986 1825.13 452.262 1823.95 441.956 1825.2 C 413.299 1825.01 384.473 1829.44 355.869 1828.98 C 316.88 1826.66 277.875 1824.63 238.856 1822.88 C 245.504 1812.73 252.467 1800.64 256.676 1789.24 C 275.097 1760.03 290.99 1728.68 307.792 1698.49 L 314.771 1685.77 z"/>
<path transform="translate(0,0)" fill="rgb(159,154,141)" d="M 314.771 1685.77 C 329.7 1658.88 344.348 1631.62 360.127 1605.22 L 359.833 1644.27 C 357.949 1653.5 359.036 1664.68 358.862 1674.16 C 358.313 1695.69 357.962 1717.23 357.809 1738.77 C 356.686 1750.36 357.032 1762.08 356.848 1773.71 L 355.869 1828.98 C 316.88 1826.66 277.875 1824.63 238.856 1822.88 C 245.504 1812.73 252.467 1800.64 256.676 1789.24 C 275.097 1760.03 290.99 1728.68 307.792 1698.49 L 314.771 1685.77 z"/>
<path transform="translate(0,0)" fill="rgb(196,190,178)" d="M 361.156 1714.91 C 381.13 1731.17 400.895 1747.69 420.444 1764.46 C 429.285 1772.02 438.985 1779.33 447.045 1787.69 C 447.768 1800.3 444.557 1812.91 441.956 1825.2 C 413.299 1825.01 384.473 1829.44 355.869 1828.98 L 356.848 1773.71 C 357.032 1762.08 356.686 1750.36 357.809 1738.77 C 358.088 1746.34 356.973 1756.3 358.838 1763.49 C 360.779 1747.79 361.043 1730.75 361.156 1714.91 z"/>
<path transform="translate(0,0)" fill="rgb(236,228,207)" d="M 1554.53 1046.87 C 1556.95 1048.1 1558 1050.89 1559.27 1053.17 C 1582.73 1104.34 1603.93 1156.77 1626.04 1208.56 C 1634.29 1227.88 1641.86 1247.86 1651.01 1266.75 C 1668.56 1263.41 1694.6 1266.93 1711.74 1271.2 C 1702.64 1273.73 1692.93 1275.23 1683.54 1276.12 C 1650.66 1279.24 1608.89 1281.04 1575.99 1280.95 C 1534.13 1280.67 1492.28 1279.2 1450.5 1276.54 C 1431.86 1275.29 1413.34 1273.25 1394.65 1272.35 C 1378.58 1271.57 1275.73 1272.07 1267.71 1265.49 C 1275.64 1263.43 1289.58 1264.61 1298.34 1264.13 C 1330.02 1262.42 1361.64 1261.81 1393.33 1260.72 C 1412.72 1260.05 1432.11 1258.29 1451.52 1259.13 C 1462.65 1238.11 1472.39 1216.11 1482.71 1194.66 C 1506.21 1145.18 1530.15 1095.91 1554.53 1046.87 z"/>
<path transform="translate(0,0)" fill="rgb(159,154,141)" d="M 1554.53 1046.87 C 1553.24 1078.51 1553.43 1110.19 1552.84 1141.85 L 1550.19 1239.21 L 1549.52 1269.12 C 1528.53 1267.88 1507.52 1266.9 1486.51 1266.19 C 1477.17 1265.88 1463.45 1267.24 1454.97 1265.08 C 1453.32 1264.66 1452.05 1265.24 1450.48 1265.07 C 1450.05 1265.02 1449.67 1264.77 1449.27 1264.62 C 1450 1262.78 1450.69 1260.93 1451.52 1259.13 C 1462.65 1238.11 1472.39 1216.11 1482.71 1194.66 C 1506.21 1145.18 1530.15 1095.91 1554.53 1046.87 z"/>
<path transform="translate(0,0)" fill="rgb(216,207,194)" d="M 1554.95 1151 C 1555.69 1137.62 1555.06 1124.29 1555.24 1110.89 C 1555.46 1094.8 1556.57 1079.2 1558.11 1063.2 C 1558.46 1059.63 1557.65 1056.47 1559.27 1053.17 C 1582.73 1104.34 1603.93 1156.77 1626.04 1208.56 C 1634.29 1227.88 1641.86 1247.86 1651.01 1266.75 C 1644.55 1271.4 1624.03 1269.25 1615.97 1269.14 C 1609.97 1258.98 1600.68 1250.97 1592.3 1242.8 C 1590.76 1230.17 1593.28 1203.5 1588.32 1193.49 C 1584.1 1184.99 1562.42 1153.57 1554.95 1151 z"/>
<path transform="translate(0,0)" fill="rgb(196,190,178)" d="M 1554.95 1151 C 1562.42 1153.57 1584.1 1184.99 1588.32 1193.49 C 1593.28 1203.5 1590.76 1230.17 1592.3 1242.8 C 1600.68 1250.97 1609.97 1258.98 1615.97 1269.14 C 1594.44 1270.2 1572.87 1270.35 1551.33 1269.59 C 1552.13 1259.46 1552.61 1248.99 1551.56 1238.87 C 1554.65 1227.09 1552.86 1211.41 1553.15 1199.05 C 1553.51 1183.01 1554.25 1167.03 1554.95 1151 z"/>
<path transform="translate(0,0)" fill="rgb(159,154,141)" d="M 377.117 1235.1 C 392.523 1212.37 408.217 1189.83 424.198 1167.49 C 429.612 1159.86 434.955 1149.94 441.601 1143.43 C 449.844 1150.87 456.918 1160.44 464.095 1168.95 L 505.66 1218.95 C 510.962 1225.36 517.388 1235.46 524.187 1239.93 C 533.087 1227.56 542.136 1215.3 551.331 1203.15 C 554.724 1198.67 560.59 1192.81 562.911 1187.83 C 563.104 1187.42 563.114 1186.94 563.216 1186.5 L 564.479 1187.25 L 566.408 1183.99 L 566.111 1184.75 L 566.626 1183.1 L 568.092 1182.81 C 570.359 1184.23 572.184 1185.8 573.872 1187.89 C 581.639 1197.5 620.829 1255.96 624.381 1265.27 C 635.062 1262.91 651.257 1264.17 661.367 1267.98 L 661.644 1269.09 C 652.702 1273.78 612.629 1274.35 600.995 1274.91 C 539.965 1277.83 478.702 1280.57 417.57 1278.89 C 388.885 1278.1 360.581 1275.26 332.001 1273.52 C 293.501 1271.17 259.202 1270.86 220.751 1264.97 C 250.01 1261.67 279.178 1260.03 308.554 1258.41 C 313.98 1258.11 331.529 1258.9 334.88 1257.5 C 345.633 1260.89 350.099 1267.92 362.553 1267.06 L 366.532 1263.88 L 368.031 1264.12 C 370.014 1255.52 376.43 1248.87 379.995 1240.99 C 381.074 1238.6 381.488 1237.37 380.531 1234.93 L 377.117 1235.1 z"/>
<path transform="translate(0,0)" fill="rgb(216,207,194)" d="M 524.187 1239.93 C 533.087 1227.56 542.136 1215.3 551.331 1203.15 C 554.724 1198.67 560.59 1192.81 562.911 1187.83 C 563.104 1187.42 563.114 1186.94 563.216 1186.5 L 564.479 1187.25 L 566.408 1183.99 L 566.111 1184.75 L 566.626 1183.1 L 568.092 1182.81 C 570.359 1184.23 572.184 1185.8 573.872 1187.89 C 581.639 1197.5 620.829 1255.96 624.381 1265.27 C 635.062 1262.91 651.257 1264.17 661.367 1267.98 L 661.644 1269.09 C 652.702 1273.78 612.629 1274.35 600.995 1274.91 C 539.965 1277.83 478.702 1280.57 417.57 1278.89 C 388.885 1278.1 360.581 1275.26 332.001 1273.52 C 293.501 1271.17 259.202 1270.86 220.751 1264.97 C 250.01 1261.67 279.178 1260.03 308.554 1258.41 C 313.98 1258.11 331.529 1258.9 334.88 1257.5 C 345.633 1260.89 350.099 1267.92 362.553 1267.06 L 372.218 1267.46 C 397.963 1268.63 423.733 1269.18 449.505 1269.1 C 466.902 1269.12 486.12 1270.66 503.347 1268.24 L 524.187 1239.93 z"/>
<path transform="translate(0,0)" fill="rgb(236,228,207)" d="M 334.88 1257.5 C 345.633 1260.89 350.099 1267.92 362.553 1267.06 L 372.218 1267.46 C 397.963 1268.63 423.733 1269.18 449.505 1269.1 C 466.902 1269.12 486.12 1270.66 503.347 1268.24 C 520.415 1267.98 537.449 1268.91 554.511 1269.05 C 572.617 1269.35 607.448 1270.28 624.381 1265.27 C 635.062 1262.91 651.257 1264.17 661.367 1267.98 L 661.644 1269.09 C 652.702 1273.78 612.629 1274.35 600.995 1274.91 C 539.965 1277.83 478.702 1280.57 417.57 1278.89 C 388.885 1278.1 360.581 1275.26 332.001 1273.52 C 293.501 1271.17 259.202 1270.86 220.751 1264.97 C 250.01 1261.67 279.178 1260.03 308.554 1258.41 C 313.98 1258.11 331.529 1258.9 334.88 1257.5 z"/>
<path transform="translate(0,0)" fill="rgb(159,154,141)" d="M 524.187 1239.93 C 533.087 1227.56 542.136 1215.3 551.331 1203.15 C 554.724 1198.67 560.59 1192.81 562.911 1187.83 C 563.104 1187.42 563.114 1186.94 563.216 1186.5 L 564.479 1187.25 L 566.408 1183.99 L 566.111 1184.75 L 566.626 1183.1 L 568.092 1182.81 C 565.801 1211.71 557.921 1240.23 554.511 1269.05 C 537.449 1268.91 520.415 1267.98 503.347 1268.24 L 524.187 1239.93 z"/>
<path transform="translate(0,0)" fill="url(#Gradient1)" d="M 441.601 1143.43 C 449.844 1150.87 456.918 1160.44 464.095 1168.95 L 505.66 1218.95 C 510.962 1225.36 517.388 1235.46 524.187 1239.93 L 503.347 1268.24 C 486.12 1270.66 466.902 1269.12 449.505 1269.1 C 447.714 1246.29 446.996 1223.31 445.406 1200.47 C 444.093 1181.61 441.553 1162.33 441.601 1143.43 z"/>
<path transform="translate(0,0)" fill="rgb(178,193,71)" d="M 368.031 1264.12 C 368.671 1264.11 369.336 1264.27 369.951 1264.09 C 372.561 1263.35 380.844 1253.96 383.28 1251.74 C 389.611 1245.97 396.057 1240.62 403.523 1236.38 C 396.038 1250.08 386.371 1260.43 372.218 1267.46 L 362.553 1267.06 L 366.532 1263.88 L 368.031 1264.12 z"/>
<path transform="translate(0,0)" fill="rgb(159,154,141)" d="M 744.989 1109.1 C 761.752 1088.46 772.11 1062.21 783.643 1038.34 C 801.993 1000.11 819.975 961.713 837.587 923.141 C 838.441 948.04 840.513 972.931 842.203 997.786 C 845.746 991.839 841.36 938.276 841.058 928.029 C 843.029 931.591 844.857 935.195 847.433 938.367 C 852.212 948.22 870.547 978.76 871.687 987.135 L 874.494 990.591 C 878.954 1003.4 887.036 1016.18 893.149 1028.43 C 903.169 1048.51 912.497 1070.48 924.256 1089.53 C 924.356 1089.8 924.453 1090.07 924.556 1090.33 C 928.633 1100.77 935.282 1111.15 940.655 1121.02 L 940.192 1121.26 L 939.116 1120.39 L 938.558 1121.52 C 930.954 1121.63 923.367 1121.05 915.775 1121.24 C 889.338 1121.91 786.206 1127.48 767.343 1121.09 L 739.527 1120.31 C 740.655 1118.53 742.175 1117.06 743.376 1115.33 C 745.073 1112.89 745.475 1112.03 744.989 1109.1 z"/>
<path transform="translate(0,0)" fill="rgb(216,207,194)" d="M 842.203 997.786 C 845.746 991.839 841.36 938.276 841.058 928.029 C 843.029 931.591 844.857 935.195 847.433 938.367 C 852.212 948.22 870.547 978.76 871.687 987.135 L 874.494 990.591 C 878.954 1003.4 887.036 1016.18 893.149 1028.43 C 903.169 1048.51 912.497 1070.48 924.256 1089.53 C 924.356 1089.8 924.453 1090.07 924.556 1090.33 C 928.633 1100.77 935.282 1111.15 940.655 1121.02 L 940.192 1121.26 L 939.116 1120.39 L 938.558 1121.52 C 930.954 1121.63 923.367 1121.05 915.775 1121.24 C 889.338 1121.91 786.206 1127.48 767.343 1121.09 C 794.273 1119.59 822.192 1121.71 849.212 1121.89 C 847.166 1094.2 845.505 1066.48 844.228 1038.74 C 843.507 1025.19 842.053 1011.34 842.203 997.786 z"/>
<path transform="translate(0,0)" fill="rgb(236,228,207)" d="M 1441.59 542.593 C 1477.84 537.351 1511.53 562.339 1517.04 598.553 C 1522.55 634.768 1497.82 668.645 1461.64 674.422 C 1425.09 680.261 1390.78 655.206 1385.21 618.611 C 1379.64 582.015 1404.95 547.89 1441.59 542.593 z"/>
<path transform="translate(0,0)" fill="rgb(159,154,141)" d="M 958.495 1253.96 C 965.104 1247.84 970.667 1239.38 976.355 1232.33 C 988.088 1217.8 1000.03 1203.39 1011.51 1188.65 C 1016.17 1182.67 1020.88 1174.46 1026.6 1169.56 L 1027.52 1170.81 C 1034.68 1176.09 1089.4 1249.77 1094.67 1259.66 L 1095.95 1256.45 C 1093.01 1244.64 1095.44 1233.77 1092.86 1222.11 L 1093.52 1221.02 C 1100.14 1224.43 1109.59 1243.62 1111.85 1250.94 C 1112.85 1254.19 1113.47 1257.5 1114.01 1260.86 L 1116.37 1257.07 C 1116.84 1261.1 1116.67 1262.56 1119.2 1265.84 C 1121.97 1266.9 1121.97 1266.77 1124.8 1265.8 C 1126.42 1264.17 1127.29 1262.92 1128.22 1260.82 L 1130.27 1262.06 C 1138.21 1253.07 1144.9 1243.93 1151.16 1233.7 C 1150.11 1243.82 1150.02 1253.64 1144.3 1262.42 C 1157.29 1263.82 1170.83 1263.75 1183.92 1264.56 C 1188.48 1264.85 1205.66 1265.25 1208.63 1268.61 C 1208.3 1268.85 1207.98 1269.12 1207.63 1269.33 C 1191.27 1279.11 1094.94 1274.99 1072.15 1275.04 C 1028.32 1275.12 984.604 1276.06 940.761 1274.12 C 927.955 1273.56 915.352 1271.32 902.604 1270.18 C 889.296 1268.99 875.509 1269 862.386 1266.47 C 872.448 1266.16 920.089 1263.36 926.806 1260.75 L 933.679 1265.94 L 951.249 1265.99 C 953.942 1262.13 956.189 1258.06 958.495 1253.96 z"/>
<path transform="translate(0,0)" fill="rgb(236,228,207)" d="M 1095.95 1256.45 C 1093.01 1244.64 1095.44 1233.77 1092.86 1222.11 L 1093.52 1221.02 C 1100.14 1224.43 1109.59 1243.62 1111.85 1250.94 C 1112.85 1254.19 1113.47 1257.5 1114.01 1260.86 L 1116.37 1257.07 C 1116.84 1261.1 1116.67 1262.56 1119.2 1265.84 C 1121.97 1266.9 1121.97 1266.77 1124.8 1265.8 C 1126.42 1264.17 1127.29 1262.92 1128.22 1260.82 L 1130.27 1262.06 C 1138.21 1253.07 1144.9 1243.93 1151.16 1233.7 C 1150.11 1243.82 1150.02 1253.64 1144.3 1262.42 C 1157.29 1263.82 1170.83 1263.75 1183.92 1264.56 C 1188.48 1264.85 1205.66 1265.25 1208.63 1268.61 C 1208.3 1268.85 1207.98 1269.12 1207.63 1269.33 C 1191.27 1279.11 1094.94 1274.99 1072.15 1275.04 C 1028.32 1275.12 984.604 1276.06 940.761 1274.12 C 927.955 1273.56 915.352 1271.32 902.604 1270.18 C 889.296 1268.99 875.509 1269 862.386 1266.47 C 872.448 1266.16 920.089 1263.36 926.806 1260.75 L 933.679 1265.94 L 951.249 1265.99 C 979.503 1267.26 1007.73 1266.34 1035.97 1267.29 C 1056.27 1266.48 1076.66 1266.53 1096.93 1265.3 L 1097.34 1264.5 L 1094.67 1259.66 L 1095.95 1256.45 z"/>
<path transform="translate(0,0)" fill="rgb(178,193,71)" d="M 1095.95 1256.45 C 1093.01 1244.64 1095.44 1233.77 1092.86 1222.11 L 1093.52 1221.02 C 1100.14 1224.43 1109.59 1243.62 1111.85 1250.94 C 1112.85 1254.19 1113.47 1257.5 1114.01 1260.86 L 1113.79 1264.49 C 1110.11 1266.84 1105.54 1265.96 1101.25 1265.84 C 1099.42 1262.75 1097.71 1259.58 1095.95 1256.45 z"/>
<path transform="translate(0,0)" fill="rgb(178,193,71)" d="M 1130.27 1262.06 C 1138.21 1253.07 1144.9 1243.93 1151.16 1233.7 C 1150.11 1243.82 1150.02 1253.64 1144.3 1262.42 C 1142.14 1264.29 1140.16 1265.15 1137.39 1265.89 C 1134.52 1266.66 1132.81 1266.49 1130.3 1264.97 L 1130.27 1262.06 z"/>
<path transform="translate(0,0)" fill="rgb(216,207,194)" d="M 1027.52 1170.81 C 1034.68 1176.09 1089.4 1249.77 1094.67 1259.66 L 1097.34 1264.5 L 1096.93 1265.3 C 1076.66 1266.53 1056.27 1266.48 1035.97 1267.29 C 1032.06 1235.42 1030.01 1202.84 1027.52 1170.81 z"/>
<path transform="translate(0,0)" fill="rgb(159,154,141)" d="M 1803.62 1102.07 C 1812.82 1107.89 1819.85 1128.21 1827.5 1133.38 C 1833.95 1144.69 1851.93 1172.95 1860.26 1181.77 C 1865.01 1191.04 1871.82 1199.64 1877.87 1208.11 C 1872.16 1212.14 1819.09 1212.15 1808.95 1211.85 C 1785.15 1210.79 1753.36 1209.37 1730.11 1210.27 C 1734.93 1203.98 1739.39 1196.98 1742.98 1189.9 C 1750.56 1181.84 1756.85 1171.03 1763.15 1161.89 C 1776.81 1142.07 1790.3 1122.12 1803.62 1102.07 z"/>
<path transform="translate(0,0)" fill="rgb(216,207,194)" d="M 1803.62 1102.07 C 1812.82 1107.89 1819.85 1128.21 1827.5 1133.38 C 1833.95 1144.69 1851.93 1172.95 1860.26 1181.77 C 1865.01 1191.04 1871.82 1199.64 1877.87 1208.11 C 1872.16 1212.14 1819.09 1212.15 1808.95 1211.85 C 1810.1 1193.05 1808.05 1172.99 1807.09 1154.14 C 1806.21 1137.01 1806.3 1118.99 1803.62 1102.07 z"/>
<path transform="translate(0,0)" fill="rgb(236,228,207)" d="M 197.749 1809.64 C 211.819 1820.32 221.305 1822.98 238.856 1822.88 C 277.875 1824.63 316.88 1826.66 355.869 1828.98 C 384.473 1829.44 413.299 1825.01 441.956 1825.2 C 452.262 1823.95 477.986 1825.13 485.711 1820.28 L 487.231 1820.33 L 488.069 1819.06 L 487.038 1815.84 C 487.204 1814.81 487.581 1814.08 488.012 1813.15 C 502.661 1813.06 562.958 1817.69 573.425 1822.72 C 575.259 1823.6 574.697 1823.04 575.356 1824.87 C 574.35 1825.73 574.269 1825.88 572.889 1826.55 C 560.349 1832.59 503.176 1832.75 486.29 1833.62 C 448.309 1835.57 410.567 1841.77 372.512 1842.94 C 308.497 1844.92 244.337 1838.24 180.606 1833.29 C 143.357 1830.4 101.399 1832.76 66.1643 1819.15 C 81.4611 1816.78 96.845 1815 112.281 1813.83 C 124.487 1812.96 192.552 1811.85 197.749 1809.64 z"/>
<path transform="translate(0,0)" fill="rgb(216,207,194)" d="M 1848.67 919.972 L 1849.7 919.303 C 1864.69 938.611 1882.6 967.175 1894.85 988.531 L 1895.41 990.133 C 1900.62 997.855 1905.25 1007.04 1911.76 1013.67 C 1914.08 1014.03 1916.4 1014.39 1918.74 1014.65 C 1916.73 1015.37 1915.34 1015.47 1913.21 1015.4 C 1908.24 1015.22 1903.36 1015.39 1898.37 1015.01 L 1891.56 1015.15 C 1882.72 1017.98 1827.93 1017.25 1818.44 1015.22 L 1793.57 1015.07 C 1811.41 982.842 1828.6 950.927 1848.67 919.972 z"/>
<path transform="translate(0,0)" fill="rgb(159,154,141)" d="M 1848.67 919.972 C 1849.05 951.79 1848.62 983.618 1849.14 1015.44 C 1838.95 1015.26 1828.61 1014.71 1818.44 1015.22 L 1793.57 1015.07 C 1811.41 982.842 1828.6 950.927 1848.67 919.972 z"/>
<path transform="translate(0,0)" fill="rgb(196,190,178)" d="M 1871.84 1014.98 C 1874.07 1006.25 1876.31 992.997 1884.85 988.321 C 1888.55 986.3 1891.16 987.317 1894.85 988.531 L 1895.41 990.133 C 1900.62 997.855 1905.25 1007.04 1911.76 1013.67 C 1914.08 1014.03 1916.4 1014.39 1918.74 1014.65 C 1916.73 1015.37 1915.34 1015.47 1913.21 1015.4 C 1908.24 1015.22 1903.36 1015.39 1898.37 1015.01 L 1891.56 1015.15 C 1885.1 1014.56 1878.34 1014.96 1871.84 1014.98 z"/>
<path transform="translate(0,0)" fill="rgb(216,207,194)" d="M 1895.41 990.133 C 1900.62 997.855 1905.25 1007.04 1911.76 1013.67 C 1914.08 1014.03 1916.4 1014.39 1918.74 1014.65 C 1916.73 1015.37 1915.34 1015.47 1913.21 1015.4 C 1908.24 1015.22 1903.36 1015.39 1898.37 1015.01 L 1904.51 1013.44 C 1902.04 1006.25 1898.42 999.419 1896.03 992.054 L 1895.41 990.133 z"/>
<path transform="translate(0,0)" fill="rgb(216,207,194)" d="M 1137.57 1001.11 C 1142.93 1003.28 1192.2 1076.97 1197.1 1086.63 C 1187 1090.91 1149.58 1090.41 1137.24 1089.85 C 1119.04 1088.86 1100.5 1089.87 1082.39 1087.99 C 1101.97 1059.9 1117.8 1029.21 1137.57 1001.11 z"/>
<path transform="translate(0,0)" fill="rgb(159,154,141)" d="M 1137.57 1001.11 L 1137.24 1089.85 C 1119.04 1088.86 1100.5 1089.87 1082.39 1087.99 C 1101.97 1059.9 1117.8 1029.21 1137.57 1001.11 z"/>
<path transform="translate(0,0)" fill="rgb(159,154,141)" d="M 1119.05 1765.42 C 1118.83 1786.94 1120.04 1808.49 1120.97 1829.98 C 1120.96 1847.6 1122.17 1865.23 1121.9 1882.83 C 1097.11 1881.73 1072.33 1880.25 1047.58 1878.39 L 1048.26 1877.65 L 1046.5 1878.14 L 1046.25 1877.15 L 1049.04 1872.97 C 1072.17 1837.08 1097.07 1802.02 1119.05 1765.42 z"/>
<path transform="translate(0,0)" fill="rgb(236,228,207)" d="M 1265.67 1883.43 C 1260.37 1884.49 1255.02 1885.36 1249.65 1886.03 C 1234.29 1888.01 1218.85 1888.66 1203.43 1889.86 C 1180.89 1891.61 1158.41 1893.63 1135.8 1894.09 C 1120.72 1894.42 1105.63 1894.34 1090.54 1893.84 C 1061.72 1892.79 1032.86 1890.15 1004.08 1888.21 C 983.378 1886.81 961.909 1886.56 941.45 1883.16 C 938.32 1882.64 935.901 1881.94 933.354 1879.98 L 933.854 1878.56 C 943.244 1874.51 1035.52 1870.07 1048.15 1872.76 C 1048.44 1872.83 1048.74 1872.9 1049.04 1872.97 L 1046.25 1877.15 L 1046.5 1878.14 L 1048.26 1877.65 L 1047.58 1878.39 C 1072.33 1880.25 1097.11 1881.73 1121.9 1882.83 C 1138.23 1882.98 1177.47 1881.07 1192.71 1877.89 L 1194.14 1877.45 L 1194.62 1874.21 L 1196.12 1873.39 C 1218.89 1873.77 1244.27 1875.38 1265.67 1883.43 z"/>
<path transform="translate(0,0)" fill="rgb(216,207,194)" d="M 1121.73 1768.76 C 1136.78 1792.56 1151.96 1816.28 1167.29 1839.9 C 1175.33 1852.33 1183.32 1866.48 1192.71 1877.89 C 1177.47 1881.07 1138.23 1882.98 1121.9 1882.83 C 1122.17 1865.23 1120.96 1847.6 1120.97 1829.98 C 1125.37 1823.27 1121.69 1779.41 1121.73 1768.76 z"/>
<path transform="translate(0,0)" fill="rgb(236,228,207)" d="M 1915.5 1206.75 C 1915.2 1200.93 1915.55 1188.06 1918.3 1182.96 L 1919.56 1184.09 C 1921.76 1190.12 1922.16 1194.89 1920.86 1201.22 C 1920.51 1202.94 1920.33 1202.12 1921.24 1203.57 C 1924.62 1200.23 1927.75 1196.91 1931.87 1194.49 L 1933.02 1195.07 C 1931.29 1200.92 1927.09 1204.87 1922.93 1209.09 C 1942.11 1209.49 1963.03 1208.45 1981.78 1212.48 C 1971.13 1214.44 1959.77 1214.62 1948.96 1215.42 C 1919.82 1217.58 1890.95 1218.51 1861.74 1219.13 C 1835.37 1219.69 1809.21 1221.4 1782.79 1220.88 C 1765.38 1220.54 1747.91 1218.67 1730.54 1217.43 C 1717.17 1216.47 1702.41 1216.51 1689.38 1213.45 C 1685.73 1212.59 1682.31 1210.68 1679.01 1208.94 L 1694.83 1205.31 C 1705.09 1204.85 1716.63 1203.92 1726.66 1206.44 L 1727.32 1209.48 L 1730.11 1210.27 C 1753.36 1209.37 1785.15 1210.79 1808.95 1211.85 C 1819.09 1212.15 1872.16 1212.14 1877.87 1208.11 C 1884.77 1207.98 1902.44 1210.01 1907.52 1205.55 C 1907.97 1201.7 1903.51 1195.1 1902.18 1191.27 L 1903.53 1191.43 C 1908.7 1195.94 1911.71 1201.14 1915.5 1206.75 z"/>
<path transform="translate(0,0)" fill="rgb(216,207,194)" d="M 1694.83 1205.31 C 1705.09 1204.85 1716.63 1203.92 1726.66 1206.44 L 1727.32 1209.48 C 1717.08 1208.97 1704.25 1209.55 1694.83 1205.31 z"/>
<path transform="translate(0,0)" fill="rgb(216,207,194)" d="M 598.379 977.99 C 606.75 971.147 628.154 935.784 636.3 924.595 L 637.081 925.135 L 637.167 924.63 C 649.773 936.63 662.355 964.144 670.686 979.951 C 659.805 981.108 646.123 983.848 635.438 981.514 C 623.235 979.877 610.482 979.726 598.199 980.392 L 598.379 977.99 z"/>
<path transform="translate(0,0)" fill="rgb(159,154,141)" d="M 598.379 977.99 C 606.75 971.147 628.154 935.784 636.3 924.595 L 637.081 925.135 L 637.167 924.63 L 635.438 981.514 C 623.235 979.877 610.482 979.726 598.199 980.392 L 598.379 977.99 z"/>
<path transform="translate(0,0)" fill="rgb(178,193,71)" d="M 226.348 1808.06 C 224.809 1790 222.38 1772.87 223.316 1754.64 C 229.636 1770.75 234.092 1782.44 233.438 1800.12 C 238.891 1786.05 241.114 1771.18 247.229 1757.13 C 245.168 1774.68 245.655 1790.92 240.594 1808.12 C 245.333 1800.89 249.575 1794.47 256.676 1789.24 C 252.467 1800.64 245.504 1812.73 238.856 1822.88 C 221.305 1822.98 211.819 1820.32 197.749 1809.64 C 191.866 1804.38 186.976 1798.62 182.193 1792.36 C 197.096 1798.89 210.205 1806.82 223.029 1816.84 C 214.01 1800.03 205.162 1789.25 203.403 1769.52 C 214.424 1781.33 220.025 1793.38 226.348 1808.06 z"/>
<path transform="translate(0,0)" fill="rgb(216,207,194)" d="M 1177.59 916.275 C 1183.86 919.53 1203.21 951.91 1208.92 960.306 C 1211.59 961.506 1213.66 961.86 1215.3 964.376 C 1209.13 967.853 1189.67 966.751 1182.62 965.123 C 1180.61 964.658 1179.74 963.813 1178.63 962.163 C 1168.48 961.209 1158.26 961.167 1148.08 961.271 C 1157.26 945.886 1167.32 930.946 1177.59 916.275 z"/>
<path transform="translate(0,0)" fill="rgb(159,154,141)" d="M 1177.59 916.275 C 1178.68 929.972 1179.94 948.672 1178.63 962.163 C 1168.48 961.209 1158.26 961.167 1148.08 961.271 C 1157.26 945.886 1167.32 930.946 1177.59 916.275 z"/>
<path transform="translate(0,0)" fill="rgb(236,228,207)" d="M 1208.92 960.306 C 1211.59 961.506 1213.66 961.86 1215.3 964.376 C 1209.13 967.853 1189.67 966.751 1182.62 965.123 C 1180.61 964.658 1179.74 963.813 1178.63 962.163 C 1188.73 961.345 1198.84 961.509 1208.92 960.306 z"/>
<path transform="translate(0,0)" fill="rgb(236,228,207)" d="M 528.444 596.514 C 534.803 595.654 541.209 597.735 545.849 602.169 C 551.729 607.789 553.854 616.29 551.311 624.016 C 548.767 631.742 542.009 637.318 533.94 638.346 C 528.2 639.078 522.412 637.419 517.93 633.76 C 513.448 630.1 510.666 624.76 510.236 618.99 C 509.405 607.861 517.385 598.011 528.444 596.514 z"/>
<path transform="translate(0,0)" fill="rgb(236,228,207)" d="M 1197.1 1086.63 C 1202.26 1086.4 1205.12 1085.19 1209.47 1082.46 C 1211.14 1083.74 1211.79 1084.78 1212.93 1086.52 L 1214.56 1086.72 C 1216.54 1084.79 1218.5 1082.83 1220.43 1080.86 L 1221.99 1081.01 C 1221.71 1083.22 1220.62 1084.69 1219.48 1086.55 L 1220.52 1087.42 C 1222.65 1087.03 1224.36 1086.42 1226.34 1085.61 C 1228.46 1084.74 1229.68 1084.33 1232.02 1084.69 L 1233.48 1085.59 C 1231.28 1088.95 1224.94 1091.41 1221.03 1092.26 C 1212.87 1094.03 1196.21 1093.29 1187.12 1093.76 C 1134.73 1096.44 1083.68 1099.49 1031.67 1090.5 C 1048.54 1089.39 1065.48 1087.86 1082.39 1087.99 C 1100.5 1089.87 1119.04 1088.86 1137.24 1089.85 C 1149.58 1090.41 1187 1090.91 1197.1 1086.63 z"/>
<path transform="translate(0,0)" fill="rgb(178,193,71)" d="M 310.365 1351.76 C 314.797 1362.07 318.233 1372.55 318.115 1383.85 C 320.53 1383.03 324.026 1374.79 325.508 1372.18 C 328.892 1365.75 333.703 1359.61 338.453 1354.13 C 335.671 1363.9 332.514 1372.43 327.316 1381.17 C 330.847 1381.72 345.352 1371.17 348.782 1368.73 C 344.445 1377.47 340.229 1383.9 333.131 1390.67 C 328.392 1393.75 323.795 1396.59 318.677 1399.03 L 318.183 1398.99 C 315.485 1399.25 312.938 1398.82 310.273 1398.45 L 301.724 1397.51 L 293.81 1394.8 C 289.293 1391.96 285.78 1388.36 282.037 1384.62 C 290.385 1387.95 299.365 1389.86 308.082 1391.97 C 299.303 1382.91 292.953 1375.71 289.514 1363.32 C 299.823 1369.51 304.844 1376 311.022 1386.02 C 310.274 1374.54 309.797 1363.27 310.365 1351.76 z"/>
<path transform="translate(0,0)" fill="rgb(246,179,161)" d="M 1630.02 1402.06 C 1629.03 1391.45 1628.58 1380.81 1627.67 1370.19 C 1633.27 1380.71 1635.55 1389.4 1635.42 1401.4 C 1642.2 1388.75 1647.78 1380.8 1659.62 1372.44 C 1654.7 1381.69 1649.52 1390.48 1643.73 1399.23 C 1653.46 1392.95 1663.53 1386.49 1673.83 1381.17 C 1665.89 1390.36 1654.67 1397.8 1644.98 1405.18 C 1655 1400.93 1665.02 1396.21 1675.35 1392.8 C 1666.99 1398.6 1658.68 1404.48 1649.25 1408.43 L 1647.57 1409.02 C 1640.11 1411.69 1636.56 1415.38 1628.14 1413.16 C 1623.17 1412.78 1619.33 1411.02 1614.89 1408.95 C 1610.48 1405.06 1606.53 1401.16 1602.72 1396.68 C 1610.14 1400.1 1618.47 1405.24 1626.13 1407.62 C 1620.69 1398.21 1614.81 1389 1609.87 1379.31 C 1618.43 1386.3 1624.14 1392.73 1630.02 1402.06 z"/>
<path transform="translate(0,0)" fill="rgb(236,228,207)" d="M 1628.14 1413.16 C 1636.56 1415.38 1640.11 1411.69 1647.57 1409.02 L 1649.25 1408.43 L 1650.86 1409.2 C 1668.15 1407.1 1685.48 1409.69 1702.39 1413.39 C 1689.81 1417.68 1676.29 1418.46 1663.1 1418.96 C 1649.99 1419.45 1580.5 1420.71 1572.93 1413.7 C 1580.16 1410.06 1606.35 1408.97 1614.89 1408.95 C 1619.33 1411.02 1623.17 1412.78 1628.14 1413.16 z"/>
<path transform="translate(0,0)" fill="rgb(178,193,71)" d="M 370.341 1228.71 C 369.144 1233.92 367.746 1238.78 368.408 1244.17 C 371.716 1241.41 375.325 1218.43 377.369 1212.63 C 377.498 1212.26 377.637 1211.9 377.77 1211.53 C 377.87 1220.2 376.779 1227.56 375.614 1236.09 L 377.117 1235.1 L 380.531 1234.93 C 381.488 1237.37 381.074 1238.6 379.995 1240.99 C 376.43 1248.87 370.014 1255.52 368.031 1264.12 L 366.532 1263.88 L 362.553 1267.06 C 350.099 1267.92 345.633 1260.89 334.88 1257.5 C 333.018 1256.26 331.918 1255.98 330.958 1253.91 L 332.442 1253.17 C 341.039 1254.65 348.73 1258.53 356.418 1262.48 C 349.015 1254.32 342.316 1246.75 337.092 1237 C 345.948 1243.13 352.269 1251.21 359.607 1258.94 C 354.542 1245.36 350.836 1231.26 347.578 1217.15 C 352.319 1223.94 358.742 1242.91 362.087 1245.94 C 364.069 1239.62 366.052 1233.88 370.341 1228.71 z"/>
<path transform="translate(0,0)" fill="rgb(178,193,71)" d="M 951.58 1223.96 C 951.586 1233.49 951.162 1242.92 950.594 1252.42 C 953.228 1250.04 956.762 1246.22 960.414 1246.16 C 960.73 1248.71 959.305 1251.53 958.495 1253.96 C 956.189 1258.06 953.942 1262.13 951.249 1265.99 L 933.679 1265.94 L 926.806 1260.75 C 921.57 1255.33 918.043 1250.3 915.051 1243.28 C 924.793 1248.13 929.217 1251.97 934.634 1261.55 L 935.202 1260.78 C 933.976 1252.74 932.388 1244.74 930.908 1236.74 C 934.858 1241.5 938.192 1245.92 941.213 1251.33 C 942.773 1240.66 946.237 1233.15 951.58 1223.96 z"/>
<path transform="translate(0,0)" fill="rgb(178,193,71)" d="M 1796.35 1913.39 C 1796.4 1912.85 1796.46 1912.3 1796.51 1911.75 C 1796.79 1907.93 1795.6 1903.71 1794.94 1899.96 C 1792.21 1884.24 1795.17 1874.72 1802.86 1861.05 C 1807.11 1875.92 1807.6 1885.92 1804.27 1901.04 C 1803.22 1905.83 1802.09 1910.15 1802.5 1915.09 L 1802.57 1916.13 C 1799.82 1917.35 1796.41 1916.91 1793.48 1916.42 L 1791.62 1916.43 C 1786.19 1906.62 1778.91 1894.62 1778.68 1883.09 C 1788.14 1891.29 1789.9 1903.31 1796.35 1913.39 z"/>
<path transform="translate(0,0)" fill="rgb(178,193,71)" d="M 961.618 1077.84 C 969.385 1086.44 966.156 1111.86 968.796 1122.99 C 960.424 1122.89 951.436 1123.33 943.609 1120 C 941.61 1117.37 939.139 1114.02 939.411 1110.6 L 941.091 1110 C 944.831 1111.54 946.613 1114.08 949.108 1117.16 C 950.258 1102.29 955.162 1091.04 961.618 1077.84 z"/>
<path transform="translate(0,0)" fill="rgb(178,193,71)" d="M 1116.37 1257.07 C 1116.81 1247.97 1123.64 1224.62 1131.02 1218.9 C 1132.24 1217.95 1132.33 1218.01 1133.57 1217.54 C 1138.41 1228.72 1135.23 1243.35 1130.94 1254.2 C 1130.07 1256.42 1129.16 1258.63 1128.22 1260.82 C 1127.29 1262.92 1126.42 1264.17 1124.8 1265.8 C 1121.97 1266.77 1121.97 1266.9 1119.2 1265.84 C 1116.67 1262.56 1116.84 1261.1 1116.37 1257.07 z"/>
<path transform="translate(0,0)" fill="rgb(178,193,71)" d="M 741.066 1079.7 L 741.055 1099.64 C 743.778 1093.2 746.86 1087.03 750.105 1080.84 C 748.84 1087.87 742.277 1104.43 743.156 1110.23 L 744.989 1109.1 C 745.475 1112.03 745.073 1112.89 743.376 1115.33 C 742.175 1117.06 740.655 1118.53 739.527 1120.31 C 736.601 1120.43 733.264 1120.73 730.514 1119.58 C 721.725 1115.93 718.651 1104.44 715.432 1096.42 C 722.315 1103.08 727.703 1111.08 733.363 1118.77 C 730.689 1110.82 725.269 1095.74 727.216 1087.37 C 732.052 1091.53 733.639 1101.35 735.176 1107.29 C 736.733 1097.83 737.834 1088.79 741.066 1079.7 z"/>
<path transform="translate(0,0)" fill="rgb(236,228,207)" d="M 333.131 1390.67 C 344.529 1395.47 355.558 1389.6 372.39 1398.48 C 360.572 1401.91 332.268 1407.01 320.956 1400.85 C 319.479 1400.05 319.849 1400.25 318.677 1399.03 C 323.795 1396.59 328.392 1393.75 333.131 1390.67 z"/>
<path transform="translate(0,0)" fill="rgb(236,228,207)" d="M 482.083 306.085 C 487.807 305.714 493.95 304.94 499.52 306.638 C 507.904 309.192 511.618 315.251 515.288 322.616 C 509.019 317.307 503.082 312.326 495.966 308.164 C 492.562 308.057 489.042 307.863 485.656 308.283 C 476.034 309.476 466.286 314.848 460.707 322.851 C 456.873 328.351 454.715 335.554 456.093 342.229 C 457.712 350.068 463.154 355.024 469.631 359.109 C 482.273 364.824 494.573 362.801 507.883 361.634 C 505.014 362.862 502.129 364.072 499.113 364.897 C 488.542 367.788 476.46 366.933 467.008 361.111 C 460.323 357.054 455.643 350.382 454.104 342.715 C 452.582 335.029 453.933 326.851 458.395 320.343 C 464.018 312.142 472.623 308.067 482.083 306.085 z"/>
<path transform="translate(0,0)" fill="rgb(178,193,71)" d="M 1725.68 1194.36 C 1725.91 1190.22 1725.34 1185.24 1727.03 1181.43 C 1727.6 1183.71 1727.87 1185.49 1729.41 1187.34 C 1732.49 1185.52 1731.58 1180.19 1734.5 1177.59 C 1736.43 1183.41 1733.25 1193.61 1731.93 1199.51 C 1735.93 1193.9 1738.55 1186.08 1743.36 1181.4 L 1744.16 1182.55 C 1743.91 1185.06 1743.48 1187.44 1742.98 1189.9 C 1739.39 1196.98 1734.93 1203.98 1730.11 1210.27 L 1727.32 1209.48 L 1726.66 1206.44 C 1722.97 1198.11 1719.71 1189.78 1716.75 1181.16 C 1720.11 1185.32 1722.85 1189.83 1725.68 1194.36 z"/>
<path transform="translate(0,0)" fill="rgb(178,193,71)" d="M 977.687 1084.88 C 980.443 1089.35 979.248 1106.6 980.367 1113.22 C 980.845 1116.05 981.124 1118.7 981.19 1121.56 C 978.715 1123.4 976.196 1123.22 973.168 1123.6 C 971.966 1122.17 971.284 1120.87 970.808 1119.07 C 967.586 1106.9 971.219 1095.19 977.687 1084.88 z"/>
<path transform="translate(0,0)" fill="rgb(178,193,71)" d="M 579.983 981.567 C 578.427 978.492 576.752 974.222 577.254 970.77 C 578.931 971.934 578.486 971.525 579.734 972.692 C 579.983 972.925 580.223 973.166 580.468 973.402 C 579.8 970.686 579.97 968.41 580.186 965.668 L 581.368 965.776 C 582.12 967.928 582.604 970.009 584.377 971.56 C 586.819 969.249 585.157 964.523 587.431 962.671 C 589.157 966.051 588.814 969.594 589.563 973.226 C 593.489 970.849 597.23 961.011 600.525 956.895 C 600.773 956.585 601.028 956.281 601.28 955.975 C 599.877 959.707 598.693 963.368 597.728 967.237 L 598.495 967.89 C 601.416 965.811 603.715 963.523 606.172 960.92 C 603.472 966.606 600.35 971.983 598.379 977.99 L 598.199 980.392 C 592.213 981.097 586.009 981.187 579.983 981.567 z"/>
<path transform="translate(0,0)" fill="rgb(178,193,71)" d="M 588.443 1104.65 C 589.916 1109.5 589.016 1115.09 588.703 1120.09 C 593.395 1116.31 598.447 1112.87 603.321 1109.33 C 601.711 1112.33 600.136 1115.44 598.283 1118.29 C 594.465 1124.18 590.499 1125.74 583.824 1127.27 C 579.649 1126.95 575.059 1126.35 571.27 1124.51 L 577.235 1123.37 C 578.176 1120.03 576.257 1116.63 577.485 1113.65 C 580.351 1116.1 582.237 1119.54 584.265 1122.69 C 584.752 1116.23 585.642 1110.55 588.443 1104.65 z"/>
<path transform="translate(0,0)" fill="rgb(236,228,207)" d="M 293.81 1394.8 L 301.724 1397.51 C 301.024 1398.34 300.433 1399.28 299.623 1400.01 C 292.464 1406.43 267.521 1403.95 258.423 1403.23 C 265.062 1400.58 271.648 1398.78 278.684 1397.55 C 283.671 1396.68 289.147 1396.84 293.81 1394.8 z"/>
<path transform="translate(0,0)" fill="rgb(236,228,207)" d="M 481.056 81.4981 C 483.701 80.3497 486.764 80.7535 489.021 82.5483 C 491.278 84.343 492.361 87.2362 491.838 90.072 C 491.315 92.9078 489.271 95.2242 486.523 96.0957 C 482.562 97.3514 478.312 95.2843 476.855 91.3936 C 475.398 87.5028 477.245 83.1526 481.056 81.4981 z"/>
<path transform="translate(0,0)" fill="rgb(236,228,207)" d="M 1518.4 281.616 C 1521.95 281.094 1525.3 283.373 1526.12 286.859 C 1526.93 290.346 1524.94 293.877 1521.54 294.984 C 1519.07 295.788 1516.35 295.132 1514.52 293.287 C 1512.69 291.443 1512.05 288.724 1512.87 286.257 C 1513.69 283.79 1515.83 281.995 1518.4 281.616 z"/>
<path transform="translate(0,0)" fill="rgb(236,228,207)" d="M 1906.41 1655.12 C 1914.37 1654.53 1927.18 1654.4 1934.36 1658.1 L 1934.73 1660.14 C 1927.45 1660.84 1914.94 1663.15 1908.37 1659.63 C 1906.58 1658.67 1906.83 1656.96 1906.41 1655.12 z"/>
<path transform="translate(0,0)" fill="rgb(223,205,86)" d="M 305.62 914.87 L 306.326 915.7 C 306.103 917.77 305.971 918.702 306.588 920.736 L 310.386 921.079 L 311.444 923.603 L 308.755 925.93 C 303.585 927.362 299.976 927.246 294.751 926.597 L 292.597 925.054 L 294.416 923.702 C 294.391 921.953 294.606 920.484 294.969 918.774 C 297.902 918.053 300.328 919.728 303.355 919.203 L 305.62 914.87 z"/>
<path transform="translate(0,0)" fill="rgb(236,228,207)" d="M 874.033 427.734 C 876.282 427.616 878.42 428.719 879.628 430.62 C 880.836 432.521 880.927 434.926 879.865 436.912 C 878.803 438.898 876.754 440.159 874.502 440.211 C 871.09 440.29 868.248 437.614 868.119 434.204 C 867.991 430.794 870.624 427.912 874.033 427.734 z"/>
<path transform="translate(0,0)" fill="rgb(236,228,207)" d="M 1712.26 436.579 C 1715.53 436.017 1718.65 438.207 1719.22 441.478 C 1719.8 444.75 1717.62 447.872 1714.35 448.463 C 1711.07 449.058 1707.92 446.865 1707.34 443.573 C 1706.76 440.281 1708.97 437.145 1712.26 436.579 z"/>
<path transform="translate(0,0)" fill="rgb(236,228,207)" d="M 1835.42 166.716 C 1838.58 166.649 1841.23 169.086 1841.43 172.24 C 1841.63 175.394 1839.31 178.145 1836.16 178.476 C 1834.01 178.703 1831.9 177.731 1830.68 175.945 C 1829.46 174.158 1829.31 171.844 1830.3 169.918 C 1831.29 167.991 1833.25 166.762 1835.42 166.716 z"/>
<path transform="translate(0,0)" fill="rgb(236,228,207)" d="M 400.513 441.742 C 403.345 441.031 406.257 442.572 407.263 445.314 C 408.268 448.056 407.043 451.114 404.422 452.404 C 402.462 453.368 400.124 453.129 398.399 451.789 C 396.674 450.449 395.865 448.242 396.314 446.105 C 396.764 443.967 398.394 442.273 400.513 441.742 z"/>
<path transform="translate(0,0)" fill="rgb(236,228,207)" d="M 77.3305 130.336 C 80.1725 129.103 83.4752 130.421 84.6866 133.273 C 85.8979 136.124 84.5538 139.416 81.6929 140.605 C 78.8635 141.781 75.6153 140.455 74.4173 137.635 C 73.2192 134.815 74.5199 131.556 77.3305 130.336 z"/>
<path transform="translate(0,0)" fill="rgb(236,228,207)" d="M 63.5215 295.527 C 65.2902 294.932 67.243 295.351 68.6118 296.619 C 69.9805 297.888 70.5461 299.804 70.0861 301.612 C 69.6261 303.421 68.214 304.834 66.4054 305.294 C 63.7507 305.97 61.0365 304.427 60.2607 301.799 C 59.4849 299.172 60.9253 296.402 63.5215 295.527 z"/>
<path transform="translate(0,0)" fill="rgb(236,228,207)" d="M 1513.6 9.71163 C 1516.2 9.06901 1518.84 10.5891 1519.59 13.1569 C 1520.34 15.7247 1518.93 18.4255 1516.39 19.2782 C 1514.66 19.8617 1512.74 19.448 1511.4 18.2005 C 1510.06 16.953 1509.52 15.0722 1509.98 13.3006 C 1510.43 11.529 1511.83 10.1514 1513.6 9.71163 z"/>
<path transform="translate(0,0)" fill="rgb(236,228,207)" d="M 1969.22 76.6639 C 1971.94 76.5602 1974.22 78.6941 1974.29 81.4132 C 1974.37 84.1323 1972.21 86.3918 1969.49 86.4422 C 1966.81 86.4919 1964.59 84.3718 1964.51 81.6902 C 1964.44 79.0085 1966.54 76.7661 1969.22 76.6639 z"/>
<path transform="translate(0,0)" fill="rgb(236,228,207)" d="M 1069.92 942.31 C 1076.34 943.039 1084.04 942.993 1088.59 947.975 C 1084.35 948.208 1077.33 948.977 1073.46 947.131 C 1070.63 945.783 1070.78 945.163 1069.92 942.31 z"/>
<path transform="translate(0,0)" fill="rgb(236,228,207)" d="M 1654.36 46.6929 C 1656.71 45.7662 1659.38 46.8929 1660.35 49.2286 C 1661.33 51.5643 1660.26 54.2515 1657.94 55.2759 C 1656.4 55.9579 1654.61 55.7532 1653.27 54.7408 C 1651.92 53.7283 1651.23 52.0664 1651.45 50.3965 C 1651.68 48.7266 1652.79 47.3098 1654.36 46.6929 z"/>
<path transform="translate(0,0)" fill="rgb(236,228,207)" d="M 323.167 193.656 C 325.309 192.676 327.841 193.594 328.858 195.718 C 329.875 197.842 329.002 200.389 326.896 201.443 C 325.501 202.141 323.837 202.032 322.544 201.158 C 321.252 200.284 320.532 198.78 320.661 197.225 C 320.79 195.67 321.749 194.305 323.167 193.656 z"/>
<path transform="translate(0,0)" fill="rgb(236,228,207)" d="M 804.95 338.35 C 806.288 337.713 807.865 337.843 809.08 338.692 C 810.295 339.54 810.961 340.976 810.823 342.452 C 810.686 343.927 809.766 345.215 808.416 345.825 C 806.357 346.754 803.933 345.852 802.983 343.803 C 802.033 341.753 802.91 339.321 804.95 338.35 z"/>
<path transform="translate(0,0)" fill="rgb(236,228,207)" d="M 1619.53 354.643 C 1621.19 353.512 1623.44 353.866 1624.68 355.451 C 1625.91 357.036 1625.7 359.307 1624.19 360.637 C 1623.13 361.576 1621.64 361.847 1620.32 361.342 C 1618.99 360.836 1618.06 359.637 1617.89 358.23 C 1617.73 356.823 1618.36 355.441 1619.53 354.643 z"/>
<path transform="translate(0,0)" fill="rgb(236,228,207)" d="M 1458.67 84.3095 C 1460.08 84.0422 1461.52 84.5882 1462.4 85.7227 C 1463.28 86.8571 1463.45 88.3882 1462.84 89.6856 C 1462.22 90.9831 1460.94 91.8274 1459.5 91.8711 C 1457.51 91.9318 1455.81 90.4518 1455.59 88.4725 C 1455.38 86.4933 1456.72 84.6804 1458.67 84.3095 z"/>
<path transform="translate(0,0)" fill="rgb(236,228,207)" d="M 238.061 176.474 C 239.572 175.382 241.672 175.654 242.855 177.095 C 244.037 178.537 243.895 180.649 242.529 181.918 C 241.568 182.811 240.19 183.097 238.953 182.66 C 237.715 182.223 236.823 181.135 236.636 179.837 C 236.449 178.538 236.998 177.242 238.061 176.474 z"/>
<path transform="translate(0,0)" fill="rgb(236,228,207)" d="M 1019.89 284.479 C 1021.55 283.718 1023.51 284.35 1024.41 285.933 C 1025.31 287.517 1024.85 289.526 1023.35 290.559 C 1022.26 291.312 1020.83 291.384 1019.67 290.747 C 1018.51 290.109 1017.8 288.871 1017.85 287.545 C 1017.9 286.22 1018.69 285.034 1019.89 284.479 z"/>
<path transform="translate(0,0)" fill="rgb(236,228,207)" d="M 548.177 410.592 C 549.223 409.905 550.564 409.854 551.659 410.46 C 552.754 411.066 553.424 412.228 553.398 413.48 C 553.371 414.731 552.654 415.865 551.534 416.424 C 549.938 417.222 547.997 416.637 547.107 415.091 C 546.216 413.545 546.686 411.572 548.177 410.592 z"/>
</svg>